<?xml version="1.0" encoding="utf-8"?>
<!-- Generator: Adobe Illustrator 24.0.1, SVG Export Plug-In . SVG Version: 6.00 Build 0)  -->
<svg version="1.1" id="圖層_1" xmlns="http://www.w3.org/2000/svg" xmlns:xlink="http://www.w3.org/1999/xlink" x="0px" y="0px"
	 viewBox="0 0 50 50" style="enable-background:new 0 0 50 50;" xml:space="preserve">
<style type="text/css">
	.st0{fill:#86FF73;}
	.st1{fill:#A100D0;}
	.st2{fill:#A26700;}
	.st3{fill:#8B007A;}
	.st4{fill:#FF885C;}
	.st5{fill:#004526;}
	.st6{fill:#6D45FF;}
	.st7{fill:#6C7300;}
	.st8{fill:#FF5C65;}
	.st9{fill:#F6A2FF;}
	.st10{fill:#E7A600;}
	.st11{fill:#008EE7;}
	.st12{fill:#EAFF8B;}
	.st13{fill:#FF9973;}
	.st14{fill:#CA17FF;}
	.st15{fill:#00E77B;}
	.st16{fill:#FF001B;}
	.st17{fill:#E3FF73;}
	.st18{fill:none;stroke:#000000;stroke-width:0.25;stroke-miterlimit:10;}
</style>
<g id="XMLID_1_">
	<g>
		<path class="st0" d="M33.27,36.66c-0.17,0.11-0.35,0.21-0.53,0.3c-0.19-0.08-0.38-0.16-0.56-0.25c0.18-0.06,0.36-0.12,0.54-0.19
			C32.9,36.57,33.09,36.62,33.27,36.66z"/>
		<path class="st1" d="M31.42,36.4c0.16,0.1,0.32,0.19,0.49,0.28c-1.35,0.38-2.74,0.61-4.14,0.68c-0.78-0.3-1.51-0.74-2.19-1.32
			C27.5,36.47,29.47,36.58,31.42,36.4z"/>
		<path class="st2" d="M31.31,36.34c-2.09,0.1-4.19-0.15-6.22-0.73c-0.66-0.63-1.25-1.39-1.74-2.24c2.29,1.43,4.86,2.33,7.5,2.69
			C31,36.15,31.15,36.25,31.31,36.34z"/>
		<path class="st3" d="M30.74,35.98c0.03,0.03,0.07,0.05,0.11,0.08c-2.64-0.36-5.21-1.26-7.5-2.69c-0.13-0.21-0.24-0.44-0.36-0.67
			C25.31,34.37,27.96,35.48,30.74,35.98z"/>
		<path class="st4" d="M36.89,26.81c0.74,3.22,0.07,6.35-1.57,8.45c-0.08,0.07-0.16,0.13-0.25,0.2c-0.02,0.01-0.03,0.02-0.05,0.03
			c0,0-0.01,0-0.01,0.01c-0.07,0.03-0.13,0.07-0.2,0.11c-0.01,0-0.02,0.01-0.03,0.01c-0.05,0.02-0.1,0.05-0.15,0.07
			c-0.07,0.04-0.15,0.07-0.22,0.1c-0.12,0.06-0.25,0.12-0.37,0.17c-0.03,0.01-0.05,0.02-0.08,0.03c-0.01,0-0.01,0-0.01,0
			c-0.01,0-0.03,0.01-0.04,0.01c-0.14,0.04-0.26,0.06-0.4,0.09c-0.14,0.03-0.27,0.06-0.4,0.07c-0.02,0-0.03,0.01-0.05,0.01
			c-0.11,0.01-0.21,0.03-0.32,0.04c-0.01,0-0.01,0-0.02,0c-0.1,0-0.2,0-0.29-0.01c-0.04,0-0.07,0-0.11-0.01
			c-0.3-0.01-0.59-0.05-0.89-0.1c-0.08-0.02-0.16-0.05-0.24-0.07c-0.09-0.03-0.19-0.06-0.28-0.1c-0.2-0.07-0.38-0.15-0.58-0.23
			c-0.01-0.01-0.03-0.01-0.04-0.02c-0.07-0.04-0.13-0.08-0.19-0.12c-0.16-0.11-0.32-0.21-0.47-0.33c-3.61-2.7-6.23-6.66-7.2-11.22
			c0.89-2.38,2.65-4.16,4.96-4.69C31.48,18.37,35.73,21.72,36.89,26.81z"/>
		<path class="st4" d="M35.12,35.43c0.05-0.04,0.1-0.08,0.16-0.12c-0.9,1.14-2.09,1.97-3.49,2.33c0.32-0.17,0.64-0.34,0.95-0.53
			c0.05-0.02,0.1-0.05,0.15-0.08c0.18-0.11,0.36-0.22,0.53-0.34c0.04-0.02,0.08-0.05,0.12-0.08c0.16-0.1,0.32-0.21,0.48-0.32
			c0.03-0.03,0.07-0.05,0.1-0.07c0.14-0.11,0.29-0.22,0.43-0.32c0.03-0.03,0.07-0.06,0.1-0.08c0.12-0.09,0.24-0.19,0.36-0.3
			C35.04,35.5,35.08,35.47,35.12,35.43z"/>
		<path class="st5" d="M32.6,37.04c0.05,0.03,0.1,0.05,0.14,0.07c-0.31,0.19-0.63,0.36-0.95,0.53c-0.06,0.02-0.12,0.04-0.18,0.05
			c-0.2,0.05-0.4,0.08-0.6,0.11C31.55,37.57,32.08,37.32,32.6,37.04z"/>
		<path class="st6" d="M32.05,36.75c0.18,0.11,0.37,0.2,0.55,0.29c-0.52,0.28-1.05,0.53-1.59,0.76c-0.9,0.11-1.79,0.03-2.64-0.23
			C29.62,37.42,30.86,37.14,32.05,36.75z"/>
		<path class="st5" d="M31.61,37.69c0.06-0.01,0.12-0.03,0.18-0.05c-3.77,1.98-8.23,2.7-12.72,1.74c-3.86-0.82-7.2-2.76-9.74-5.41
			c-0.24-0.6-0.45-1.23-0.63-1.86c2.45,3.1,5.87,5.46,9.97,6.56c4.26,1.14,8.57,0.74,12.34-0.87
			C31.21,37.77,31.41,37.74,31.61,37.69z"/>
		<path class="st6" d="M28.37,37.57c0.85,0.26,1.74,0.34,2.64,0.23c-3.77,1.61-8.08,2.01-12.34,0.87c-4.1-1.1-7.52-3.46-9.97-6.56
			c-0.65-2.31-0.86-4.78-0.57-7.29c1.54,4.53,4.77,8.48,9.36,10.81C20.98,37.41,24.76,38.01,28.37,37.57z"/>
		<path class="st0" d="M30.32,35.71c0.14,0.09,0.28,0.19,0.42,0.27c-2.78-0.5-5.43-1.61-7.75-3.28c-0.37-0.77-0.68-1.61-0.88-2.51
			c-0.05-0.21-0.09-0.42-0.12-0.63C24.16,32.37,27.06,34.48,30.32,35.71z"/>
		<path class="st7" d="M30.22,35.64c0.03,0.02,0.06,0.05,0.1,0.07c-3.26-1.23-6.16-3.34-8.33-6.15c0,0,0,0-0.01-0.01
			c-0.05-0.31-0.09-0.62-0.12-0.92c2.05,3.13,4.98,5.55,8.34,7C30.21,35.64,30.22,35.64,30.22,35.64z"/>
		<path class="st8" d="M30.1,35.55c0.03,0.03,0.06,0.05,0.1,0.08c-3.36-1.45-6.29-3.87-8.34-7c-0.12-1.3-0.02-2.55,0.29-3.7
			c1.25,4.26,3.94,7.86,7.48,10.29C29.78,35.34,29.94,35.44,30.1,35.55z"/>
		<path class="st9" d="M27.77,37.36c-3.54,0.19-7.18-0.61-10.48-2.52c-4.6-2.65-7.67-6.93-8.89-11.69c0.01-0.03,0.01-0.07,0.02-0.1
			c0.44-2.07,1.2-3.99,2.22-5.71c-0.04,5.25,2.08,10.49,6.29,14.27c2.54,2.29,5.53,3.76,8.65,4.43
			C26.26,36.62,26.99,37.06,27.77,37.36z"/>
		<path class="st10" d="M25.26,8.08c0.33-0.03,0.66-0.05,1-0.06C23.6,11.28,22,15.46,22,20c0,1.37,0.15,2.71,0.43,4
			c-0.11,0.3-0.2,0.61-0.28,0.93c-0.41-1.39-0.66-2.85-0.74-4.36C21.16,15.9,22.63,11.53,25.26,8.08z"/>
		<path class="st11" d="M25.09,35.61c0.16,0.16,0.32,0.3,0.49,0.43c-3.12-0.67-6.11-2.14-8.65-4.43c-4.21-3.78-6.33-9.02-6.29-14.27
			c0.25-0.42,0.51-0.82,0.78-1.21c-0.35,5.26,1.5,10.64,5.52,14.66C19.29,33.14,22.11,34.75,25.09,35.61z"/>
		<path class="st12" d="M22.43,24c0.97,4.56,3.59,8.52,7.2,11.22c-3.54-2.43-6.23-6.03-7.48-10.29C22.23,24.61,22.32,24.3,22.43,24z
			"/>
		<path class="st13" d="M23.35,33.37c0.49,0.85,1.08,1.61,1.74,2.24c-2.98-0.86-5.8-2.47-8.15-4.82c-4.02-4.02-5.87-9.4-5.52-14.66
			c1.03-1.47,2.25-2.78,3.62-3.88c-1.37,5.03-0.67,10.6,2.39,15.32C19,30,21.04,31.95,23.35,33.37z"/>
		<path class="st14" d="M23.35,33.37c-2.31-1.42-4.35-3.37-5.92-5.8c-3.06-4.72-3.76-10.29-2.39-15.32c0.32-0.26,0.64-0.5,0.97-0.74
			c-1.57,4.92-1.14,10.46,1.65,15.28c1.39,2.4,3.22,4.39,5.33,5.91C23.11,32.93,23.22,33.16,23.35,33.37z"/>
		<path class="st15" d="M22.11,30.19c0.2,0.9,0.51,1.74,0.88,2.51c-2.11-1.52-3.94-3.51-5.33-5.91c-2.79-4.82-3.22-10.36-1.65-15.28
			c1.27-0.9,2.65-1.65,4.11-2.21c-2.22,4.33-2.78,9.51-1.16,14.51c0.69,2.13,1.72,4.06,3.02,5.74c0.01,0.01,0.01,0.01,0.01,0.01
			C22.02,29.77,22.06,29.98,22.11,30.19z"/>
		<path class="st16" d="M21.15,8.93c1.32-0.43,2.7-0.72,4.11-0.85c-2.63,3.45-4.1,7.82-3.85,12.49c0.08,1.51,0.33,2.97,0.74,4.36
			c-0.31,1.15-0.41,2.4-0.29,3.7c-1.1-1.65-1.94-3.5-2.48-5.52C18.05,18.14,18.82,13.1,21.15,8.93z"/>
		<path class="st17" d="M21.86,28.63c0.03,0.3,0.07,0.61,0.12,0.92c-1.3-1.68-2.33-3.61-3.02-5.74c-1.62-5-1.06-10.18,1.16-14.51
			c0.34-0.14,0.68-0.26,1.03-0.37c-2.33,4.17-3.1,9.21-1.77,14.18C19.92,25.13,20.76,26.98,21.86,28.63z"/>
	</g>
	<g>
		<path class="st18" d="M30.2,35.63c-0.04-0.03-0.07-0.05-0.1-0.08"/>
		<path class="st18" d="M32.74,37.11c-0.04-0.02-0.09-0.04-0.14-0.07c-0.18-0.09-0.37-0.18-0.55-0.29
			c-0.05-0.01-0.09-0.04-0.14-0.07c-0.17-0.09-0.33-0.18-0.49-0.28c-0.04-0.02-0.08-0.04-0.11-0.06c-0.16-0.09-0.31-0.19-0.46-0.28
			c-0.04-0.03-0.08-0.05-0.11-0.08c-0.14-0.08-0.28-0.18-0.42-0.27c-0.04-0.02-0.07-0.05-0.1-0.07"/>
		<path class="st18" d="M29.63,35.22c-3.54-2.43-6.23-6.03-7.48-10.29c-0.41-1.39-0.66-2.85-0.74-4.36
			c-0.25-4.67,1.22-9.04,3.85-12.49"/>
		<path class="st18" d="M32.89,37.03c-0.05-0.02-0.1-0.04-0.15-0.07c-0.19-0.08-0.38-0.16-0.56-0.25c-0.05-0.02-0.1-0.05-0.14-0.07
			c-0.17-0.08-0.34-0.17-0.5-0.25c-0.04-0.02-0.07-0.04-0.11-0.06c-0.15-0.08-0.31-0.17-0.46-0.26c-0.04-0.02-0.09-0.05-0.14-0.07
			c-0.13-0.08-0.27-0.16-0.4-0.25c-0.04-0.02-0.07-0.04-0.1-0.06"/>
		<path class="st18" d="M30.29,35.67c-0.02-0.01-0.04-0.02-0.07-0.03c0,0-0.01,0-0.02-0.01c-3.36-1.45-6.29-3.87-8.34-7
			c-1.1-1.65-1.94-3.5-2.48-5.52c-1.33-4.97-0.56-10.01,1.77-14.18"/>
		<path class="st18" d="M31.48,36.13c-0.04-0.01-0.09-0.03-0.13-0.05c-0.05-0.01-0.11-0.03-0.16-0.06"/>
		<path class="st18" d="M33.42,36.69l-0.15-0.03c-0.18-0.04-0.37-0.09-0.55-0.14c-0.04-0.01-0.09-0.03-0.13-0.04
			c-0.17-0.05-0.34-0.1-0.51-0.15c-0.04-0.01-0.08-0.02-0.12-0.04c-0.15-0.05-0.29-0.09-0.44-0.15"/>
		<path class="st18" d="M21.98,29.55c-1.3-1.68-2.33-3.61-3.02-5.74c-1.62-5-1.06-10.18,1.16-14.51"/>
		<path class="st18" d="M30.91,35.92c-0.16-0.05-0.32-0.11-0.48-0.17c-0.04-0.01-0.08-0.03-0.11-0.04
			c-3.26-1.23-6.16-3.34-8.33-6.15"/>
		<path class="st18" d="M33.54,36.61c-0.05,0-0.09-0.01-0.14-0.03c-0.18-0.03-0.37-0.07-0.55-0.11c-0.04-0.01-0.09-0.02-0.13-0.03
			c-0.17-0.04-0.34-0.08-0.51-0.13c-0.04-0.01-0.09-0.02-0.13-0.03c-0.17-0.05-0.34-0.09-0.51-0.15c-0.05-0.01-0.09-0.02-0.14-0.04"
			/>
		<path class="st18" d="M31.43,36.09c-0.03,0-0.05,0-0.08-0.01C31.18,36.06,31,36.03,30.83,36c-0.03,0-0.06-0.01-0.09-0.02
			c-2.78-0.5-5.43-1.61-7.75-3.28c-2.11-1.52-3.94-3.51-5.33-5.91c-2.79-4.82-3.22-10.36-1.65-15.28"/>
		<path class="st18" d="M34.02,36.29c-0.05,0-0.09,0-0.14-0.01c-0.17,0.01-0.34,0-0.51-0.01c-0.05,0-0.09,0-0.14-0.01
			c-0.16,0-0.33-0.01-0.49-0.03c-0.04,0.01-0.09,0-0.13-0.01c-0.06,0-0.12,0-0.18-0.02"/>
		<path class="st18" d="M32.32,36.19c-0.25,0-0.5-0.02-0.75-0.06c-0.01,0.01-0.03,0.01-0.05,0.01c-0.01,0-0.02,0-0.04-0.01
			c-0.17-0.01-0.34-0.03-0.51-0.06c-0.04,0-0.08,0-0.12-0.01c-2.64-0.36-5.21-1.26-7.5-2.69c-2.31-1.42-4.35-3.37-5.92-5.8
			c-3.06-4.72-3.76-10.29-2.39-15.32"/>
		<path class="st18" d="M32.79,36.22c-0.02,0-0.04,0-0.05-0.01"/>
		<path class="st18" d="M34.12,36.22h-0.14c-0.17,0.01-0.35,0.01-0.53,0.01h-0.13c-0.15,0-0.31,0-0.46-0.02"/>
		<path class="st18" d="M32.72,36.21c-0.04,0.01-0.07,0.01-0.11,0.01c-0.18,0.03-0.35,0.05-0.53,0.06
			c-0.04,0.01-0.08,0.01-0.12,0.01c-0.18,0.02-0.35,0.03-0.53,0.04c-0.04,0-0.08,0.01-0.12,0.01c-2.09,0.1-4.19-0.15-6.22-0.73
			c-2.98-0.86-5.8-2.47-8.15-4.82c-4.02-4.02-5.87-9.4-5.52-14.66"/>
		<path class="st18" d="M34.55,35.9c-0.04,0.01-0.07,0.01-0.11,0.02c-0.17,0.04-0.35,0.08-0.52,0.1c-0.04,0.02-0.08,0.02-0.11,0.02
			c-0.1,0.03-0.2,0.04-0.3,0.05"/>
		<path class="st18" d="M33.06,36.17c-0.06,0.02-0.14,0.03-0.2,0.04c-0.02,0.01-0.05,0.01-0.07,0.01c-0.02,0.01-0.03,0.01-0.05,0.01
			c-0.18,0.04-0.35,0.06-0.53,0.08c-0.04,0.01-0.09,0.02-0.13,0.02c-0.18,0.03-0.36,0.05-0.54,0.06c-0.04,0.01-0.08,0.01-0.12,0.01
			c-1.95,0.18-3.92,0.07-5.84-0.36c-3.12-0.67-6.11-2.14-8.65-4.43c-4.21-3.78-6.33-9.02-6.29-14.27"/>
		<path class="st18" d="M34.65,35.82c-0.04,0.01-0.08,0.02-0.12,0.03c-0.16,0.04-0.31,0.08-0.47,0.11c-0.01,0-0.01,0.01-0.02,0"/>
		<path class="st18" d="M33.91,36c-0.04,0.02-0.07,0.03-0.1,0.04c-0.16,0.07-0.33,0.13-0.49,0.19c-0.03,0.01-0.06,0.03-0.09,0.03
			c-0.17,0.07-0.34,0.13-0.51,0.18c-0.04,0.02-0.09,0.03-0.13,0.04c-0.18,0.06-0.37,0.12-0.55,0.16c-0.04,0.02-0.09,0.03-0.13,0.04
			c-1.35,0.38-2.74,0.61-4.14,0.68c-3.54,0.19-7.18-0.61-10.48-2.52c-4.6-2.65-7.67-6.93-8.89-11.69"/>
		<path class="st18" d="M35.01,35.52c-0.04,0.02-0.07,0.04-0.1,0.05c-0.03,0.02-0.07,0.03-0.1,0.04"/>
		<path class="st18" d="M34.41,35.79c-0.12,0.07-0.23,0.12-0.35,0.17c-0.04,0.03-0.09,0.05-0.14,0.06
			c-0.15,0.08-0.31,0.15-0.47,0.21c-0.03,0.02-0.05,0.03-0.08,0.04c-0.17,0.07-0.34,0.14-0.52,0.2c-0.04,0.02-0.08,0.03-0.13,0.05
			c-0.18,0.07-0.36,0.13-0.54,0.19c-0.04,0.02-0.08,0.03-0.13,0.04c-1.19,0.39-2.43,0.67-3.68,0.82c-3.61,0.44-7.39-0.16-10.88-1.94
			c-4.59-2.33-7.82-6.28-9.36-10.81"/>
		<path class="st18" d="M35.12,35.43c-0.02,0.01-0.03,0.03-0.05,0.03"/>
		<path class="st18" d="M35.01,35.5c-0.03,0.02-0.06,0.04-0.1,0.07c-0.12,0.1-0.25,0.19-0.38,0.28c-0.03,0.02-0.06,0.04-0.09,0.07
			c-0.15,0.1-0.31,0.2-0.46,0.3c-0.03,0.02-0.07,0.04-0.1,0.06c-0.16,0.11-0.32,0.21-0.48,0.3c-0.04,0.03-0.09,0.06-0.13,0.08
			c-0.17,0.11-0.35,0.21-0.53,0.3c-0.04,0.03-0.09,0.06-0.14,0.08c-0.52,0.28-1.05,0.53-1.59,0.76c-3.77,1.61-8.08,2.01-12.34,0.87
			c-4.1-1.1-7.52-3.46-9.97-6.56"/>
		<path class="st18" d="M35.28,35.31c-0.06,0.04-0.11,0.08-0.16,0.12c-0.04,0.04-0.08,0.07-0.11,0.09c-0.12,0.11-0.24,0.21-0.36,0.3
			c-0.03,0.02-0.07,0.05-0.1,0.08c-0.14,0.1-0.29,0.21-0.43,0.32c-0.03,0.02-0.07,0.04-0.1,0.07c-0.16,0.11-0.32,0.22-0.48,0.32
			c-0.04,0.03-0.08,0.06-0.12,0.08c-0.17,0.12-0.35,0.23-0.53,0.34c-0.05,0.03-0.1,0.06-0.15,0.08c-0.31,0.19-0.63,0.36-0.95,0.53
			c-3.77,1.98-8.23,2.7-12.72,1.74c-3.86-0.82-7.2-2.76-9.74-5.41c-0.24-0.6-0.45-1.23-0.63-1.86c-0.65-2.31-0.86-4.78-0.57-7.29
			c0.06-0.55,0.15-1.11,0.27-1.67c0.01-0.03,0.01-0.07,0.02-0.1c0.44-2.07,1.2-3.99,2.22-5.71c0.25-0.42,0.51-0.82,0.78-1.21
			c1.03-1.47,2.25-2.78,3.62-3.88c0.32-0.26,0.64-0.5,0.97-0.74c1.27-0.9,2.65-1.65,4.11-2.21c0.34-0.14,0.68-0.26,1.03-0.37
			c1.32-0.43,2.7-0.72,4.11-0.85c0.33-0.03,0.66-0.05,1-0.06C23.6,11.28,22,15.46,22,20c0,1.37,0.15,2.71,0.43,4
			c0.97,4.56,3.59,8.52,7.2,11.22c0.15,0.12,0.31,0.22,0.47,0.33c0.06,0.04,0.12,0.08,0.19,0.12c0.01,0.01,0.03,0.01,0.04,0.02"/>
		<path class="st18" d="M35.28,35.31c-0.9,1.14-2.09,1.97-3.49,2.33c-0.06,0.02-0.12,0.04-0.18,0.05c-0.2,0.05-0.4,0.08-0.6,0.11
			c-0.9,0.11-1.79,0.03-2.64-0.23c-0.21-0.05-0.41-0.12-0.6-0.21c-0.78-0.3-1.51-0.74-2.19-1.32c-0.17-0.13-0.33-0.27-0.49-0.43
			c-0.66-0.63-1.25-1.39-1.74-2.24c-0.13-0.21-0.24-0.44-0.36-0.67c-0.37-0.77-0.68-1.61-0.88-2.51c-0.05-0.21-0.09-0.42-0.12-0.63
			c0,0,0,0-0.01-0.01c-0.05-0.31-0.09-0.62-0.12-0.92c-0.12-1.3-0.02-2.55,0.29-3.7c0.08-0.32,0.17-0.63,0.28-0.93
			c0.89-2.38,2.65-4.16,4.96-4.69c4.09-0.94,8.34,2.41,9.5,7.5c0.74,3.22,0.07,6.35-1.57,8.45"/>
	</g>
</g>
</svg>
